<?xml version="1.0" encoding="UTF-8"?>
<svg width="82px" height="26px" viewBox="0 0 82 26" version="1.1" xmlns="http://www.w3.org/2000/svg" xmlns:xlink="http://www.w3.org/1999/xlink">
    <title>SVG Layer 2</title>
    <g id="Page-1" stroke="none" stroke-width="1" fill="none" fill-rule="evenodd">
        <g id="Desktop-HD" transform="translate(-529.000000, -1360.000000)" fill="#FFFFFF" fill-rule="nonzero">
            <g id="Group-5" transform="translate(508.000000, 1345.000000)">
                <g id="SVG-Layer" transform="translate(21.000000, 15.000000)">
                    <path d="M23.6243608,18.4519365 C23.508998,18.1246619 23.3741804,17.808031 23.2459549,17.5146375 C23.0485118,17.0633755 22.8417431,16.6112198 22.6417275,16.1741765 L22.6258902,16.1394828 C20.8420686,12.2353432 18.927449,8.27782241 16.9353314,4.37694095 L16.8507588,4.211313 C16.6475275,3.81296905 16.4374627,3.40108887 16.221851,2.99638305 C15.9662039,2.4842161 15.6559706,2.00167286 15.296698,1.55730084 C14.8922451,1.06966323 14.3866588,0.677479652 13.8156333,0.408405939 C13.2446078,0.139332226 12.6219706,0 11.9916961,0 C11.3614216,0 10.7388647,0.139649913 10.1678392,0.408869063 C9.59689412,0.678088213 9.09138824,1.07040261 8.68709608,1.55813771 C8.3282255,2.00261536 8.01817706,2.48505297 7.76244157,2.99696805 C7.54497275,3.40530574 7.3329304,3.82100467 7.1278902,4.22302112 L7.04936314,4.37690033 C5.05715706,8.27806616 3.14255354,12.2355869 1.35874804,16.1394015 L1.33275726,16.1961952 C1.13621452,16.6261697 0.933007261,17.0707693 0.738862614,17.514475 C0.610570398,17.8076247 0.47592881,18.1240119 0.360442261,18.452099 C0.0296697764,19.3459293 -0.0757326216,20.3086596 0.053709845,21.2537586 C0.190981222,22.2088513 0.573202516,23.1112941 1.16251883,23.8715495 C1.75183354,24.6318049 2.52780275,25.2235481 3.41356354,25.5881977 C4.0825951,25.8617661 4.79794863,26.0015972 5.51985412,25.9999862 C5.74662432,25.9999862 5.97320157,25.986566 6.19845236,25.9600785 C7.1114902,25.8425099 7.99207373,25.5422102 8.78855099,25.076892 C9.83332746,24.4836864 10.8651608,23.6143123 11.9923392,22.3720011 C13.1195177,23.6143123 14.151351,24.4836864 15.1961275,25.076892 C15.9925726,25.5422915 16.8731882,25.8425099 17.786202,25.9600785 C18.0114608,25.986566 18.2380863,25.9999862 18.4648726,25.9999862 C19.1867137,26.0015972 19.9019627,25.8617661 20.5709863,25.5881977 C21.4567471,25.2235481 22.2327726,24.6318049 22.8221275,23.8715495 C23.4114824,23.1112941 23.7937471,22.2089325 23.9310569,21.2537586 C24.0603275,20.3085783 23.9549333,19.3458481 23.6243608,18.4519365 Z M11.9923392,19.8062913 C10.5969726,18.018712 9.70156471,16.358695 9.38739216,14.9670465 C9.25868432,14.4455846 9.22829608,13.9043789 9.2978353,13.371542 C9.35274314,12.9809736 9.49471569,12.6080365 9.71306079,12.2807619 C9.98173138,11.9286248 10.3270157,11.6434376 10.7222235,11.447219 C11.1174314,11.2510817 11.5520314,11.1490318 11.9925,11.1490318 C12.433049,11.1490318 12.8675686,11.251163 13.2627765,11.4474628 C13.6579843,11.6436813 14.0031882,11.9288685 14.2718588,12.2810056 C14.4902039,12.6084428 14.6321765,12.9813799 14.6870843,13.3720295 C14.7564627,13.9051102 14.7259941,14.4464783 14.5970451,14.9681028 C14.282551,16.3595888 13.3873843,18.0191183 11.9923392,19.8062913 Z M22.3012667,21.0184588 C22.2052784,21.6862518 21.9379745,22.3172387 21.5259647,22.8487756 C21.1138745,23.3803938 20.5713078,23.7941996 19.9519667,24.0491618 C19.3257118,24.3027428 18.6460765,24.3926052 17.976249,24.3103803 C17.2799726,24.2197054 16.6089392,23.9881431 16.0035863,23.6294248 C15.0736098,23.1013816 14.1322177,22.2907512 13.0728902,21.1015775 C14.7592765,18.9999672 15.8123333,17.062888 16.2022353,15.3375461 C16.3777314,14.6119844 16.4157569,13.8595289 16.3143824,13.1198297 C16.2224137,12.4825867 15.9883118,11.8746748 15.6297627,11.3419191 C15.2097137,10.7671573 14.6617608,10.299889 14.0300392,9.97789559 C13.3982373,9.65590219 12.7003529,9.48812112 11.9925,9.48812112 C11.2847275,9.48812112 10.5867628,9.65582094 9.95496079,9.97773309 C9.32315883,10.2996453 8.77520589,10.7668323 8.35515687,11.3415941 C7.99666412,11.8741873 7.76259432,12.4819367 7.67053726,13.1190172 C7.56911452,13.8584727 7.60694706,14.6105219 7.78204922,15.3358399 C8.17170197,17.061913 9.22483922,18.9994797 10.9117882,21.10174 C9.85246079,22.2907512 8.91106863,23.1013816 7.98108412,23.629506 C7.37572314,23.9881431 6.70476216,24.2197866 6.00846961,24.3103803 C5.33856177,24.3926052 4.65892648,24.3027428 4.03263138,24.0491618 C3.41329824,23.7941996 2.87073961,23.3803938 2.45869765,22.8488568 C2.04666373,22.3172387 1.7794402,21.6862518 1.6835002,21.0184588 C1.59121804,20.3396158 1.66975314,19.6482603 1.9118702,19.0080922 C2.00390314,18.74663 2.11160452,18.4900428 2.24503138,18.1851931 C2.43379216,17.7539185 2.6341053,17.3155753 2.82786648,16.8916945 L2.85388942,16.8347383 C4.62771824,12.9527799 6.53171001,9.01727787 8.51304706,5.13738326 L8.59191177,4.98291905 C8.79361569,4.58737823 9.00223334,4.17841491 9.21270001,3.78323971 C9.41400197,3.37594202 9.65767059,2.99138618 9.93960589,2.63607218 C10.1893843,2.33108439 10.5029137,2.0855309 10.8576843,1.9169617 C11.2125353,1.74838438 11.5998647,1.66092697 11.9920177,1.66092697 C12.3841706,1.66092697 12.7715804,1.74826251 13.126351,1.91677483 C13.481202,2.08528715 13.7947314,2.33079189 14.0445902,2.63573906 C14.3266863,2.99078493 14.5704353,3.37521077 14.7715765,3.78249221 C14.9801137,4.17414929 15.1868824,4.57943198 15.386898,4.97134094 L15.4716314,5.13755389 C17.4528961,9.01703412 19.3568235,12.9524549 21.1308373,16.8350633 L21.1468353,16.8700007 C21.3439569,17.3010315 21.547751,17.7465248 21.7396471,18.1853556 C21.8732588,18.4906115 21.9811451,18.7474425 22.0729529,19.0079297 C22.3149333,19.648179 22.3934765,20.3395345 22.3012667,21.0184588 Z" id="Shape"></path>
                    <path d="M33.5112294,19.5971541 C32.8688157,19.5971541 32.2778529,19.4669917 31.7381804,19.2067482 C31.1985882,18.9465048 30.7360922,18.5820989 30.3248863,18.1136119 C29.9137608,17.6452062 29.6054569,17.098638 29.3741686,16.5000699 C29.1428804,15.8754205 29.0400588,15.1987713 29.0400588,14.4700408 C29.0400588,13.7413103 29.1686059,13.0385798 29.3998137,12.4139305 C29.631102,11.7893624 29.9651314,11.2427942 30.3763373,10.7483073 C30.7874627,10.2798203 31.2756843,9.88941444 31.841002,9.62917097 C32.4063196,9.3689275 32.9973627,9.23876513 33.6654216,9.23876513 C34.3078353,9.23876513 34.8731529,9.3689275 35.3871,9.65517094 C35.9010471,9.91549566 36.3121726,10.3058202 36.646202,10.8003072 L36.723298,9.52508983 L39.0873902,9.52508983 L39.0873902,19.3368294 L36.723298,19.3368294 L36.646202,17.9054496 C36.3121726,18.4259366 35.8753216,18.8423424 35.3100039,19.154667 C34.7960569,19.4409917 34.1793686,19.5971541 33.5112294,19.5971541 Z M34.127998,17.2548003 C34.5904941,17.2548003 35.0016196,17.124638 35.3871,16.8903945 C35.7468549,16.630151 36.0295137,16.2918264 36.260802,15.8754205 C36.4663647,15.4590147 36.5691059,14.9645278 36.5691059,14.4179596 C36.5691059,13.8713914 36.4663647,13.3769045 36.260802,12.9604987 C36.0552392,12.5440929 35.7468549,12.2057682 35.3871,11.9455247 C35.0273451,11.6852 34.5904941,11.5811189 34.127998,11.5811189 C33.6654216,11.5811189 33.2542961,11.7112812 32.8688157,11.9455247 C32.5091412,12.2057682 32.2264824,12.5440929 31.9951941,12.9604987 C31.7896314,13.3769045 31.6868098,13.8713914 31.6868098,14.4179596 C31.6868098,14.9645278 31.7896314,15.4590147 31.9951941,15.8754205 C32.2007569,16.2918264 32.5091412,16.630151 32.8688157,16.8903945 C33.2542961,17.124638 33.6654216,17.2548003 34.127998,17.2548003 Z M43.1217098,6.87041141 C43.1217098,7.15669548 43.0703392,7.41696333 42.9417922,7.62516623 C42.8133255,7.83337726 42.6334882,8.01555582 42.4022,8.14571005 C42.1709118,8.27579116 41.9139784,8.32787236 41.6570451,8.32787236 C41.4000314,8.32787236 41.143098,8.27579116 40.9118098,8.14571005 C40.6805216,8.01555582 40.5006843,7.83337726 40.3722177,7.62516623 C40.2436706,7.39093086 40.1923,7.15669548 40.1923,6.87041141 C40.1923,6.58412734 40.2436706,6.32386762 40.3722177,6.11565659 C40.5006843,5.88142122 40.6805216,5.72526701 40.9118098,5.59513715 C41.143098,5.46500729 41.4000314,5.41295859 41.6570451,5.41295859 C41.9139784,5.41295859 42.1709118,5.46500729 42.4022,5.59513715 C42.6334882,5.72526701 42.8133255,5.90745369 42.9417922,6.11565659 C43.0446137,6.32386762 43.1217098,6.558103 43.1217098,6.87041141 Z M40.3722177,19.3108294 L40.3722177,9.49900861 L42.9417922,9.49900861 L42.9417922,19.3108294 L40.3722177,19.3108294 L40.3722177,19.3108294 Z M49.8027804,12.0756059 L49.8027804,12.1016058 C49.6743137,12.0496059 49.5201216,12.0235247 49.3915745,11.9975247 C49.2374627,11.9715247 49.1089157,11.9715247 48.9548039,11.9715247 C48.2352941,11.9715247 47.6956216,12.179687 47.3358667,12.622174 C46.9504667,13.0645798 46.770549,13.6892291 46.770549,14.4960408 L46.770549,19.3108294 L44.2009745,19.3108294 L44.2009745,9.49900861 L46.5649863,9.49900861 L46.6420824,10.9825508 C46.8990961,10.4619826 47.2074,10.0715767 47.644251,9.7853333 C48.0553765,9.49900861 48.543598,9.3689275 49.1089157,9.3689275 C49.2888333,9.3689275 49.4686706,9.39492747 49.6228627,9.42092744 C49.6999588,9.44700866 49.7513294,9.44700866 49.8027804,9.47300863 L49.8027804,12.0756059 Z M50.8305941,19.3108294 L50.8305941,5.46500729 L53.400249,5.46500729 L53.400249,10.7483073 C53.7600039,10.2798203 54.1711294,9.91541441 54.6850765,9.62917097 C55.1990235,9.3689275 55.7643412,9.21276516 56.4067549,9.21276516 C57.0490882,9.21276516 57.6401314,9.34284627 58.1797235,9.60317099 C58.7193961,9.86341447 59.1818922,10.2277391 59.593098,10.6962261 C60.0042235,11.1647131 60.3125275,11.7112812 60.5438157,12.3098494 C60.7751039,12.9344987 60.8778451,13.611148 60.8778451,14.3398784 C60.8778451,15.0686089 60.7493784,15.7713394 60.5181706,16.3959075 C60.2868824,17.0205568 59.9528529,17.567125 59.5416471,18.061612 C59.1305216,18.530099 58.6423,18.9204235 58.0769824,19.1807483 C57.5116647,19.4409917 56.9206216,19.5710729 56.2525627,19.5710729 C55.610149,19.5710729 55.0448314,19.4409917 54.5308843,19.154667 C54.0169373,18.8944236 53.6058118,18.5040177 53.2717824,18.0095308 L53.1946863,19.2848294 L50.8305941,19.3108294 Z M55.7899863,17.2548003 C56.2525627,17.2548003 56.6636882,17.124638 57.0490882,16.8903945 C57.4088431,16.630151 57.691502,16.2918264 57.9227902,15.8754205 C58.1283529,15.4590147 58.2311745,14.9645278 58.2311745,14.4179596 C58.2311745,13.8713914 58.1283529,13.3769045 57.9227902,12.9604987 C57.691502,12.5440929 57.4088431,12.2057682 57.0490882,11.9455247 C56.6894137,11.6852 56.2525627,11.5811189 55.7899863,11.5811189 C55.3274902,11.5811189 54.9163647,11.7112812 54.5308843,11.9455247 C54.1711294,12.2057682 53.8884706,12.5440929 53.6571824,12.9604987 C53.4516196,13.3769045 53.3488784,13.8713914 53.3488784,14.4179596 C53.3488784,14.9645278 53.4516196,15.4590147 53.6571824,15.8754205 C53.8627451,16.2918264 54.1711294,16.630151 54.5308843,16.8903945 C54.9163647,17.124638 55.3274902,17.2548003 55.7899863,17.2548003 Z M61.8543686,19.3108294 L61.8543686,9.49900861 L64.2183804,9.49900861 L64.2954765,10.7743072 C64.5781353,10.3058202 64.9636157,9.94149563 65.4518373,9.65517094 C65.9400588,9.3689275 66.5053765,9.23876513 67.1477902,9.23876513 C67.8673,9.23876513 68.4839882,9.42092744 68.9979353,9.75933333 C69.5375275,10.097658 69.9487333,10.5921449 70.2313922,11.2167943 C70.514051,11.8413624 70.6681627,12.5960928 70.6681627,13.4549856 L70.6681627,19.3368294 L68.0985882,19.3368294 L68.0985882,13.7933103 C68.0985882,13.116661 67.9443961,12.5700928 67.6360118,12.179687 C67.3277078,11.7893624 66.916502,11.5811189 66.3769098,11.5811189 C65.9914294,11.5811189 65.6574,11.6592 65.3490157,11.8413624 C65.0663569,12.0235247 64.835149,12.2577682 64.6552314,12.596174 C64.4753941,12.9084175 64.398298,13.2988233 64.398298,13.6892291 L64.398298,19.3108294 L61.8543686,19.3108294 L61.8543686,19.3108294 Z M71.9529902,19.3108294 L71.9529902,5.46500729 L74.5226451,5.46500729 L74.5226451,10.7483073 C74.8824,10.2798203 75.2935255,9.91541441 75.8074725,9.62917097 C76.3214196,9.3689275 76.8867373,9.21276516 77.529151,9.21276516 C78.1715647,9.21276516 78.7625275,9.34284627 79.3022,9.60317099 C79.8417922,9.86341447 80.3042882,10.2277391 80.7153333,10.6962261 C81.1269412,11.1647131 81.4348431,11.7112812 81.6663725,12.3098494 C81.897902,12.9344987 82,13.611148 82,14.3398784 C82,15.0686089 81.8721765,15.7713394 81.6406471,16.3959075 C81.4091176,17.0205568 81.0754902,17.567125 80.6638824,18.061612 C80.2529176,18.530099 79.7646961,18.9204235 79.1993784,19.1807483 C78.6340608,19.4409917 78.0430176,19.5710729 77.3749588,19.5710729 C76.7325451,19.5710729 76.1672275,19.4409917 75.6532804,19.154667 C75.1393333,18.8944236 74.7282078,18.5040177 74.3941784,18.0095308 L74.3170824,19.2848294 L71.9529902,19.3108294 Z M76.9381078,17.2548003 C77.4006039,17.2548003 77.8118098,17.124638 78.1972098,16.8903945 C78.5569647,16.630151 78.8396235,16.2918264 79.0709118,15.8754205 C79.2764745,15.4590147 79.3792961,14.9645278 79.3792961,14.4179596 C79.3792961,13.8713914 79.2764745,13.3769045 79.0709118,12.9604987 C78.865349,12.5440929 78.5569647,12.2057682 78.1972098,11.9455247 C77.8374549,11.6852 77.4006039,11.5811189 76.9381078,11.5811189 C76.4755314,11.5811189 76.0644059,11.7112812 75.6790059,11.9455247 C75.319251,12.2057682 75.0365922,12.5440929 74.8053039,12.9604987 C74.5740157,13.3769045 74.4969196,13.8713914 74.4969196,14.4179596 C74.4969196,14.9645278 74.5997412,15.4590147 74.8053039,15.8754205 C75.0108667,16.2918264 75.319251,16.630151 75.6790059,16.8903945 C76.0644059,17.124638 76.4498863,17.2548003 76.9381078,17.2548003 Z" id="Shape"></path>
                </g>
            </g>
        </g>
    </g>
</svg>