<?xml version="1.0" encoding="UTF-8"?>
<svg width="133px" height="128px" viewBox="0 0 133 128" version="1.1" xmlns="http://www.w3.org/2000/svg" xmlns:xlink="http://www.w3.org/1999/xlink">
    <title>Combined Shape</title>
    <g id="Page-1" stroke="none" stroke-width="1" fill="none" fill-rule="evenodd">
        <g id="Spanish-White" transform="translate(-133.000000, -27.000000)" fill="#BA744D" fill-rule="nonzero">
            <g id="Group-Copy" transform="translate(133.000000, 27.000000)">
                <path d="M93.3013987,105.555118 C94.3775748,105.883465 95.5828922,107.103041 95.7766039,108.088083 C95.8411744,108.392977 95.905745,112.403504 95.948792,117.000366 C95.9918391,124.364727 96.0564097,125.467035 96.400786,126.147183 C96.8312565,127.014958 97.1971564,127.226039 98.251809,127.226039 C99.7369321,127.226039 100.318067,126.100276 99.8875968,124.083286 C99.7369321,123.426591 99.8015027,123.192058 100.27502,122.676083 C101.501861,121.339241 103.804878,122.207016 103.804878,124.036379 C103.804878,126.40517 101.415767,128 97.9074327,128 C95.6474627,128 94.4851925,127.624746 93.4090163,126.592797 C91.9023697,125.091781 91.7732285,124.411633 91.6225639,115.968418 C91.5087446,109.560478 91.4785213,108.654467 91.1340335,108.160376 L91.0928676,108.104904 C91.0573627,108.059718 91.0188108,108.01653 90.9768582,107.970816 C90.0513467,106.962321 88.4155589,107.407935 87.5115709,108.932404 C87.1678468,109.483203 87.090034,110.075396 87.0818647,113.119832 L87.0815114,114.068482 C87.0922927,118.255737 87.3189354,119.400233 88.2003237,119.697504 C89.395707,120.131693 88.4455305,120.320954 85.1506945,120.330374 L84.8857011,120.330746 L81.097561,120.307292 L81.8939313,119.603691 L82.6687782,118.90009 L82.6687782,108.955858 L82.044596,108.369523 C81.7002196,108.064629 81.4419373,107.712829 81.4419373,107.595562 C81.4419373,107.478295 82.0230725,107.243761 82.7333487,107.056134 C83.443625,106.891961 84.5843717,106.446346 85.2731245,106.071092 C86.9811202,105.140523 87.0765315,105.110505 87.0809097,106.40616 L87.0811005,106.54016 L87.0811005,107.759736 L87.6191885,107.173401 C88.9751705,105.695838 91.4288522,104.992237 93.3013987,105.555118 Z M77.5646902,105.361702 C77.6550811,105.361702 77.745472,107.842026 77.7508672,110.957333 L77.7511214,111.251197 L77.7518521,111.954944 C77.7645612,117.750186 77.9503038,118.839708 78.8697084,119.255452 C79.195963,119.391888 79.4756098,119.596543 79.4756098,119.710239 C79.4756098,119.819876 77.7637542,119.908368 75.6564384,119.914549 L71.3658537,119.914894 L72.2280978,119.119016 L73.1136459,118.300399 L73.1134472,113.766229 C73.1077475,109.588665 72.9738225,109.059228 71.9950589,108.681649 C71.6688043,108.567952 71.3891576,108.363298 71.3891576,108.249601 C71.3891576,108.135904 72.18149,107.749335 73.1602537,107.408245 C74.1390174,107.067154 75.4906434,106.453191 76.1664564,106.066622 C76.8422694,105.680053 77.4714746,105.361702 77.5646902,105.361702 Z M46.9090306,97.8605201 C46.0853347,98.1300236 46.1075968,99.0283688 46.9090306,101.364066 C47.3542717,102.609141 48.0653692,104.523343 48.8086349,106.491584 L49.032346,107.083063 L49.2388954,107.627535 C49.9269225,109.438604 50.604155,111.195275 51.0879971,112.416939 L51.2271655,112.766908 C51.5375022,113.543808 51.7441305,114.035005 51.7844201,114.07565 C51.8705958,114.162587 52.6030891,112.209317 53.437137,109.701725 L53.5208602,109.449173 L55.1014659,104.643026 L54.1441976,102.060284 C53.2091914,99.5 52.0960888,97.748227 51.4504893,97.748227 C51.2723929,97.748227 51.1165585,97.6359338 51.1165585,97.501182 C51.1165585,97.3712428 52.524179,97.2830698 54.9401998,97.2769375 L55.4520841,97.2768505 C57.5908687,97.2814083 59.3089937,97.3463779 59.3089937,97.4113475 C59.3089937,97.501182 59.0641111,97.748227 58.7969665,97.9728132 C58.4630357,98.2198582 58.3072014,98.6241135 58.3072014,99.0732861 C58.3290659,99.6467832 60.4124419,105.506222 62.9755334,112.119635 L63.1158046,112.481087 L63.9172385,114.592199 L66.1657058,107.652482 C67.5014289,103.520095 68.4141731,100.330969 68.4141731,99.7470449 C68.4141731,98.6465721 67.8798838,97.748227 67.2565464,97.748227 C67.0116638,97.748227 66.7445192,97.6359338 66.6554709,97.501182 C66.5664227,97.3664303 67.6795253,97.2765957 69.8166824,97.2765957 C72.9556317,97.2765957 73.8238517,97.501182 72.1541978,97.8605201 C71.2191916,98.0626478 70.1283511,99.0059102 69.5940618,100.083924 C69.3761779,100.545521 67.8361559,105.008556 66.1636478,110.083112 L66.0543955,110.414894 L62.9154462,119.914894 L60.8228133,119.914894 L58.2404152,112.975177 C56.8379059,109.15721 55.6134931,106.102837 55.5244448,106.192671 C55.43774,106.280142 54.401275,109.242052 53.1959637,112.839365 L53.0978812,113.132388 L50.8271518,119.914894 L49.8253595,119.914894 C49.0907118,119.914894 48.779043,119.8026 48.6677328,119.510638 C48.5786846,119.286052 46.8867686,114.749409 44.8831839,109.426714 C42.9018613,104.104019 41.0095868,99.3652482 40.7201801,98.893617 C39.8742222,97.6134752 38.3604026,97.4787234 36.7130107,98.5791962 C35.3995497,99.4326241 34.7316881,102.576832 35.5776461,103.834515 C36.0674112,104.530733 37.4253964,104.553191 37.8038513,103.879433 C38.11552,103.27305 38.5607611,103.27305 39.3399329,103.946809 C39.8296981,104.395981 39.9632704,104.710402 39.9632704,105.496454 C39.9632704,108.618203 35.0878809,109.112293 33.1733444,106.192671 C32.6390552,105.384161 32.5277449,104.91253 32.4609588,103.43026 C32.3941726,101.903073 32.4609588,101.476359 32.9284619,100.600473 C33.6408475,99.2754137 34.8652604,98.2647754 36.4458661,97.7257683 C37.4699205,97.3664303 38.4494508,97.2990544 42.5234064,97.2765957 C46.9980789,97.2765957 48.2447538,97.4338061 46.9090306,97.8605201 Z M109.451419,105.962889 C110.547392,106.524879 111.464431,107.469022 112.023601,108.570522 C112.51567,109.514665 112.806439,111.672706 112.44857,111.695186 C111.643365,111.695186 103.568951,112.459492 103.479484,112.54941 C103.255816,112.774206 103.993921,114.909768 104.575457,115.651595 C105.425396,116.775574 106.543735,117.202687 108.40018,117.067809 C110.234257,116.932932 111.173662,116.48334 112.538037,115.067125 C113.701111,113.853227 113.835311,114.033064 113.00774,115.651595 C112.314369,117.04533 110.614493,118.641381 109.183018,119.293289 C106.543735,120.439749 103.166349,119.967677 101.153337,118.14683 C99.5652947,116.730615 98.9390244,115.202003 98.9390244,112.751727 C98.9613912,109.110032 100.4376,106.839593 103.546585,105.738093 C105.179361,105.153623 108.109411,105.266021 109.451419,105.962889 Z M104.016287,107.873654 C103.636052,108.772838 103.188716,111.178155 103.345283,111.44791 C103.412384,111.537828 104.48599,111.47039 105.738531,111.290553 C107.013438,111.133196 108.131778,110.998318 108.221245,110.975839 C108.46728,110.975839 108.444913,108.862757 108.176512,107.918614 C108.042311,107.491501 107.706809,106.884552 107.416041,106.569838 C106.431901,105.513297 104.709658,106.165205 104.016287,107.873654 Z M76.3977583,99.2838216 C77.3683585,99.7679005 77.8536585,100.816738 77.8536585,102.322762 C77.8536585,103.882572 76.4247194,105.361702 74.8879358,105.361702 C72.1918242,105.361702 70.5741572,102.887521 71.7604463,100.574699 C72.0030964,100.117513 72.4614354,99.5527543 72.8119299,99.3107148 C73.5938022,98.7728493 75.3732359,98.745956 76.3977583,99.2838216 Z M91.1025047,83.0992425 C92.7419231,83.6150439 94.426257,85.1624482 95.1224484,86.7547047 C95.8860131,88.5039442 95.8860131,91.4866219 95.1224484,93.2358615 C94.3813415,94.9626748 92.7194653,96.3979483 90.9453002,96.9137497 C86.9478143,98.0350571 83.085075,96.4876529 81.6702345,93.2358615 C80.9066698,91.4866219 80.9066698,88.5039442 81.6702345,86.7547047 C82.3439681,85.1848743 84.1630488,83.5253394 85.6677205,83.0543902 C87.1499343,82.6058673 89.6202908,82.6058673 91.1025047,83.0992425 Z M110.531707,83.7305951 C111.705488,84.7550825 111.79939,85.2331766 111.822866,90.0141181 C111.822866,94.999957 112.010671,96.1838091 112.92622,96.5936041 C113.254878,96.7529688 113.536585,96.9578663 113.536585,97.0716983 C113.536585,97.1814648 111.833945,97.2488928 109.691612,97.253569 L105.367073,97.2538294 L106.259146,96.4570058 L107.15122,95.6374158 L107.080793,90.7198761 C107.010366,86.0072338 106.98689,85.77957 106.446951,85.2787094 C105.414024,84.2769884 103.348171,84.8233817 102.55,86.3031969 C102.291768,86.8040574 102.197866,87.9423768 102.197866,90.9247736 C102.197866,95.2048545 102.456098,96.3659402 103.418598,96.6619033 C104.724848,97.0619412 103.682139,97.2667226 100.072089,97.2762473 L95.695122,97.2765957 L96.5402439,96.5708377 L97.3853659,95.8878461 L97.3853659,86.2348977 L96.7045732,85.665738 C96.3289634,85.3470086 96.0472561,85.0055128 96.0472561,84.8916808 C96.0472561,84.7778489 96.6810976,84.550185 97.4557927,84.3908203 C98.2304878,84.2086892 99.4746951,83.7761278 100.225915,83.4118656 C102.090758,82.5076132 102.193097,82.4793553 102.197672,83.8031469 L102.197866,85.1648775 L102.996037,84.4363531 C104.09939,83.4118656 105.22622,82.9110051 106.752134,82.7516404 C108.231098,82.6150421 109.686585,82.9793043 110.531707,83.7305951 Z M86.4762008,85.2297266 C85.8473827,86.8668354 85.8473827,93.1461569 86.4762008,94.7608395 C87.3295966,96.9810282 89.1711351,97.0931589 90.226651,94.985101 C90.6898429,94.0389979 90.7582689,93.6250778 90.7650129,90.7313327 L90.7656379,90.1186269 C90.7656379,86.0146418 90.4287711,84.4896637 89.3957129,83.7496008 C88.2503659,82.9646857 87.1274765,83.5253394 86.4762008,85.2297266 Z M63.3447535,55.2567979 C66.2943974,55.3679418 67.8505088,55.9236612 70.4517697,57.835336 C74.8878484,61.0585087 75.0039761,61.125195 76.0259,61.1029662 C76.5600875,61.1029662 77.2568538,60.925136 77.605237,60.7028482 C78.4645821,60.1471288 78.720063,60.2360439 78.720063,61.0585087 C78.720063,61.7476007 78.7432886,61.7698295 79.1381228,61.4141691 C80.9961663,59.8136972 84.7122532,60.0137561 86.9419053,61.8365159 C88.8928509,63.4369878 89.752196,67.2381087 88.8463999,70.2167648 C88.2889868,72.083982 86.4309434,73.9067417 84.5728999,74.4180036 C82.7148565,74.9514943 80.8103619,74.8848079 79.1148973,74.2179446 C78.8162831,74.090923 78.7191151,74.1453609 78.7133595,75.3290594 L78.7136769,75.6353142 C78.7159634,76.0190391 78.7247266,76.4972427 78.7375509,77.0907311 L78.7432886,77.3522022 L78.8361908,80.6642899 L79.6258592,81.353382 C80.0671445,81.7090425 80.4155277,82.0869317 80.4155277,82.153618 C80.4155277,82.3759058 71.0002492,84.0063896 67.5021257,80.4864597 C65.7832443,79.0957069 65.7369844,78.4191835 65.5744056,70.4168238 C65.4374971,64.651381 65.41588,63.5834145 65.0934652,63.097862 L65.0515666,63.0399037 C65.0298039,63.0121436 65.0067984,62.9859887 64.9824487,62.9604345 L64.9319267,62.9098292 C64.9144685,62.8930293 64.8963827,62.8761987 64.8776393,62.8590396 C64.2415175,62.2502181 63.004614,62.2362222 62.027819,62.7983259 L61.8583187,62.9034971 L61.1615524,63.3925302 L61.1615524,67.9494295 C61.1615524,72.6417223 61.2280979,73.1092729 62.2716523,73.957996 L62.3460551,74.0178856 L62.9731448,74.5513763 L54.6816259,74.5513763 L55.3319411,74.0178856 C56.3715606,73.1710751 56.5053313,72.767832 56.515714,68.9293415 L56.5162333,68.0079408 C56.5118168,64.7875162 56.4358802,64.0163253 56.098384,63.3703015 C55.4016177,62.0588036 53.5667998,61.9921173 52.4287482,63.2591576 C51.9439894,63.8074674 51.8982255,64.0156521 51.8948066,67.452204 L51.8945607,68.0383446 C51.8945607,72.5507863 52.1035906,73.684454 53.0790634,73.9734281 C54.3940715,74.3640194 53.3408774,74.5427822 49.7682407,74.5510732 L45.4146341,74.5513763 L46.2739792,73.8622842 L47.1333243,73.1954209 L47.1333243,63.7926482 L46.4597836,63.2369288 C46.0881749,62.9257259 45.7862428,62.5922943 45.7862428,62.4811504 C45.7862428,62.3922353 46.4133325,62.1699475 47.1797754,61.9921173 C47.9694439,61.8142871 49.2700743,61.3697115 50.0829683,61.0140511 C50.9190879,60.6361619 51.6623053,60.324959 51.7319819,60.324959 C51.8164384,60.324959 51.8817003,60.6740059 51.8928681,61.1215876 L51.8945607,61.2585677 L51.8945607,62.1699475 L52.9164846,61.525313 C53.4971232,61.1474238 54.3332427,60.7473058 54.774528,60.5917043 C56.7254737,59.9692986 59.303509,60.525018 60.3486584,61.8142871 C60.7667182,62.3255489 60.8828459,62.3700065 61.1383269,62.0810324 C61.3009057,61.9032022 62.1137997,61.4141691 62.9266937,61.0362799 C65.6208567,59.7470108 68.5472751,60.2805015 69.7782289,62.3033202 C69.9640333,62.6367518 70.080161,65.4153489 70.1730632,71.0614583 C70.2891909,78.3080396 70.3588675,79.4417072 70.7072506,80.0863417 C71.1949871,80.9088065 71.5665957,81.1088655 72.7510984,81.1088655 C73.331737,81.1088655 73.6568946,80.953264 73.842699,80.6198324 C73.9636879,80.3882395 74.0332263,78.7655509 74.0417422,75.6143458 L74.0420565,74.3607264 C74.0408509,73.7420171 74.0377398,73.075971 74.0326719,72.3618516 L74.0285033,71.8172367 L73.9588267,63.4814454 L73.2620604,62.2144051 C71.705949,59.4135792 68.6866284,57.435218 65.8995632,57.4129892 C64.5989328,57.4129892 64.2505496,57.5241331 62.7176638,58.3910554 C61.7654165,58.9467749 60.7202671,59.3913504 60.3951095,59.3913504 C59.4893133,59.3913504 58.7460959,58.7689446 58.5835171,57.9020223 C58.3744872,56.835041 58.792547,56.1681777 60.0002753,55.6346871 C60.8596203,55.2567979 61.4170334,55.1901115 63.3447535,55.2567979 Z M133,57.4611092 C133,57.977436 132.822355,58.5407016 132.555887,58.8458039 C132.156185,59.3151919 131.956334,59.3386613 130.690612,59.1978449 C129.474236,59.0648516 129.228398,59.0993313 128.699761,59.5583087 L128.603281,59.6437635 L127.959318,60.2304986 L128.914161,60.8876418 C131.845306,62.9294797 132.067363,68.0927481 129.358274,70.5570352 C127.581822,72.1529546 124.184357,72.8100978 121.71953,72.0356075 C119.83205,71.4488725 119.521171,71.4488725 119.432348,72.0825463 C119.32132,72.9274448 120.165135,73.1386694 123.429365,73.1386694 C126.493745,73.1386694 128.758721,73.5376492 129.73577,74.2182619 C131.689867,75.5560178 131.800895,78.7713258 129.957826,80.5784697 C128.270197,82.2682666 125.494491,82.8784711 120.34278,82.6907159 C115.235481,82.4794912 111.793605,81.4468376 110.661117,79.7335713 C110.283621,79.1703056 110.172593,77.9264273 110.43906,77.2223453 C110.772145,76.2835692 112.99271,75.7672424 114.036376,76.3539774 C114.326283,76.5169594 114.446093,76.5887036 114.518977,76.6539169 L114.558062,76.6929389 L114.591797,76.7344593 C114.712909,76.8962511 114.845359,77.1904261 116.300667,78.5189434 C118.682081,80.6928807 120.409397,82.52643 124.650676,81.7754092 C127.337559,81.3060212 129.247245,79.7570407 128.581076,78.6305094 C128.247991,78.0672437 127.448588,77.9029579 123.473777,77.5978557 C119.632199,77.2927535 118.699562,77.0580595 117.678102,76.095814 C116.656642,75.1335686 116.989727,72.5519344 117.877953,71.6835665 C118.424554,71.1491863 118.737798,70.8547772 118.817685,70.8003393 L118.832796,70.7917293 L118.077804,69.7356062 C116.878699,68.0927481 116.545614,66.2386654 117.07855,64.1498886 C117.880596,60.9882249 120.756404,59.2131984 124.69378,59.4142897 L124.983761,59.4325389 L126.982269,59.5733553 L127.270943,58.4937628 C127.581822,57.2264152 128.536665,55.9590675 129.513713,55.4896794 C131.11252,54.7151892 133,55.7947817 133,57.4611092 Z M95.3828497,60.0851064 C95.4760653,60.0624663 95.5925848,62.9320831 95.6391926,66.4621673 C95.7091043,73.1807147 95.8023199,73.7500831 96.8742991,74.0689295 C97.1073381,74.1372537 97.3170732,74.2966768 97.3170732,74.4333252 C97.3170732,74.543132 95.7135629,74.6317618 93.5095103,74.6379524 L93.2621951,74.6382979 L89.2073171,74.6382979 L90.0695613,73.8411821 L90.9551093,73.0440663 L90.9551093,68.83074 C90.9551093,66.5304915 90.8851976,64.4807652 90.7919821,64.2530179 C90.6987665,64.0480452 90.3259041,63.7064242 89.9297379,63.5242263 C89.5568755,63.3192537 89.230621,63.0687315 89.230621,62.9548579 C89.230621,62.8409842 90.0229535,62.4765884 91.0017171,62.1349673 C91.9804808,61.7705715 93.3321068,61.1784284 94.0079198,60.7912579 C94.6837328,60.4040873 95.2896341,60.0851064 95.3828497,60.0851064 Z M101.719044,52.7255305 C103.731603,53.7387136 104.251149,55.0095976 104.296664,59.197334 L104.299247,59.5252655 L104.299247,62.3038948 L105.331329,61.5132279 C107.962524,59.5042153 111.729419,59.8900621 112.967288,62.2490692 L113.049501,62.4168472 L113.105194,62.5523491 C113.39783,63.3004252 113.468095,64.1451513 113.47517,67.5707689 L113.475796,68.222601 L113.498232,73.0569641 L115.158537,74.6382979 L111.019386,74.6381131 C108.995872,74.6349201 107.373055,74.5906069 107.373055,74.5253455 C107.373055,74.4632216 107.655848,74.1543282 108.031336,73.8074702 L108.135897,73.7120881 L108.89874,73.0343737 L108.898466,68.2390623 C108.890319,63.5968401 108.695315,62.7250818 107.642293,62.3716662 C106.744831,62.0553995 105.623004,62.4394377 104.905034,63.2752855 C104.354319,63.953 104.304254,64.0146104 104.299703,67.3977514 L104.299247,73.0343737 L105.017217,73.7346786 C105.398638,74.1187168 105.71275,74.502755 105.71275,74.5479359 C105.71275,74.6131008 104.136217,74.6364933 102.179913,74.6381963 L101.706907,74.6381963 C99.7506025,74.6364933 98.1740699,74.6131008 98.1740699,74.5479359 C98.1740699,74.5065201 98.438011,74.18037 98.7930745,73.830492 L98.8920395,73.7346786 L99.610009,72.9891927 L99.5426993,68.222601 L99.4753897,63.4560094 L98.7798567,62.9138378 L98.1067603,62.3716662 L99.4305166,61.7391327 C101.651735,60.6773801 102.796692,58.3246557 102.796692,57.2770714 C102.796692,56.2294871 102.993902,54.6031714 101.135694,53.4258354 C99.277486,52.2484995 93.8438162,54.0809594 95.2124456,55.7074741 C95.8631055,56.4755505 96.0425979,57.8987508 95.5714304,58.7797796 C94.7637147,60.2933419 92.0040193,60.2707514 91.1963036,58.7120082 C89.8725473,56.1366932 92.2508213,53.1547496 96.3791461,52.2285399 C98.2413796,51.7993207 100.305542,51.9800446 101.719044,52.7255305 Z M35.118657,60.321733 C37.2158379,59.8065466 40.1048116,60.1649371 41.3887999,61.0833128 C42.8225869,62.1136855 43.0365849,62.8752653 43.0365849,67.041555 L43.0369937,67.3498999 C43.0471811,71.0740997 43.2517093,71.9051735 44.0851754,72.0142232 C44.3419731,72.059022 44.7057698,71.9246256 44.898368,71.7230309 C45.454763,71.1630458 45.6045616,71.7454304 45.1337659,72.5966078 C44.5987707,73.5597823 43.0151851,74.4109597 41.7953962,74.4109597 C40.5970071,74.4333592 39.4842173,74.0301698 39.2060198,73.4701847 C39.0134215,73.0669953 38.8850227,73.0893948 37.3228369,73.8509746 C35.3112552,74.8141491 34.1342659,74.8813473 32.700479,74.1197675 C31.3094916,73.380587 30.8386959,72.6190072 30.8172961,71.0510487 C30.7958963,68.7215105 32.3152825,67.153552 35.3968544,66.436771 C37.9220315,65.831987 38.7780237,65.0256084 38.7780237,63.2784546 C38.7780237,61.150511 37.1730383,60.1201383 35.7392513,61.2849074 C35.1614566,61.7776944 35.1400568,61.867292 35.2684556,63.2560552 C35.4182542,64.6000196 35.3754546,64.7792149 34.9260587,65.227203 C34.348264,65.7871882 32.8288778,65.8991852 32.2296832,65.4287977 C30.3251006,63.8832386 31.9086862,61.1281116 35.118657,60.321733 Z M80.2761744,61.7031432 C79.9742424,61.8142871 79.5097315,62.2144051 79.231025,62.5478367 C78.780914,63.1017143 78.7264107,63.3905512 78.7206803,66.6639627 L78.7203089,68.1587133 C78.7237278,71.7346789 78.7694918,72.0104561 79.2542505,72.7063878 C79.5561826,73.1287346 80.1135956,73.5733101 80.4852043,73.684454 C81.4374516,73.9956569 82.8542097,73.284336 83.4116228,72.2173547 C84.8283809,69.4387576 84.4567722,63.3258439 82.7845331,62.0143461 C82.2967967,61.6142281 80.9032641,61.4363979 80.2761744,61.7031432 Z M38.7772369,68.4921251 C38.7678433,65.8144817 38.6486521,65.8813675 37.1730383,66.8623597 C35.9746492,67.6463389 35.3968544,68.7663093 35.3968544,70.2446701 C35.3968544,71.6782321 36.0388486,72.5294096 37.1088389,72.5294096 C38.6924245,72.5294096 38.7780237,72.3950131 38.7780237,69.1246998 C38.7780237,69.0493563 38.7780126,68.9757252 38.7779724,68.9037799 Z M124.006712,60.0662127 C123.318337,60.0662127 122.252466,61.3570298 121.941587,62.5539693 C121.519679,64.2202968 121.564091,67.8580541 122.030409,69.3600958 C122.918635,72.176424 124.850527,72.3641792 125.983015,69.7356062 C126.382717,68.7968301 126.471539,68.0927481 126.493745,65.9805019 C126.493745,63.0702961 126.071837,61.4039686 125.050378,60.5825396 C124.717293,60.3009068 124.250974,60.0662127 124.006712,60.0662127 Z M8.23439024,52.2767784 C12.2739024,51.348495 17.0458537,52.8514301 18.0890244,55.3489544 C19.1987805,58.0011927 17.2678049,61.3606946 14.4712195,61.6480204 C13.7831707,61.6922243 12.9841463,61.6259184 12.5846341,61.4491025 C11.652439,61.0733687 10.7202439,59.9461675 10.7202439,59.2168019 C10.7202439,57.647561 12.3182927,56.4319517 13.0063415,57.4707451 C13.472439,58.2001106 14.56,58.1559066 15.0482927,57.4044391 C15.6253659,56.5203597 15.3812195,54.8848127 14.56,54.0228353 C12.8065854,52.1883705 9.14439024,52.4756963 7.28,54.5753849 C5.54878049,56.5424617 4.79414634,58.9736801 4.79414634,62.5099978 C4.79414634,68.8532677 8.01243902,73.2736649 12.6956098,73.3620728 C13.472439,73.3620728 14.2492683,73.2957668 14.4046341,73.2073589 C14.6043902,73.096849 14.6931707,71.9254437 14.6931707,69.3174094 C14.6931707,65.0959301 14.5156098,64.5433805 13.0729268,63.9245249 C12.6068293,63.747709 12.0297561,63.5045872 11.7634146,63.3940772 C11.3639024,63.2283123 13.2366159,63.1122769 15.8178392,63.1019166 L16.5382007,63.1017532 C17.192048,63.1040115 17.8791796,63.1127792 18.5773171,63.1288534 L18.5773171,63.1288534 L21.0853659,63.1951594 L20.3529268,63.6150971 C19.287561,64.1897487 19.11,65.0738282 19.11,70.1130809 C19.11,72.5000954 19.0656098,74.4671721 18.9990244,74.4671721 C18.9546341,74.4671721 18.5107317,74.2019483 18.0446341,73.8704185 C16.9792683,73.1631549 16.8017073,73.1631549 14.6709756,73.8925205 C12.1629268,74.7544979 10.0987805,74.8650078 7.70170732,74.2461522 C2.68560976,72.986339 7.18334773e-16,69.1847975 -1.65077994e-18,63.3056693 C-7.02689345e-16,57.581255 3.08512195,53.4481837 8.23439024,52.2767784 Z M27.06281,52.0008953 L27.101062,52.0013152 C27.2624025,52.023907 27.4006944,55.7967374 27.4698403,62.4613182 C27.5763309,72.5444099 27.6237798,73.6188615 28.4487345,73.9734619 L28.518307,74.0011566 C28.5658788,74.0187664 28.6158539,74.0348967 28.6683698,74.0509111 C29.9821425,74.4575635 28.8527589,74.6382979 25.1188786,74.6382979 L25.1188786,74.6382979 L21.0853659,74.6382979 L21.915117,73.9605439 L22.7448682,73.2827899 L22.7448682,55.390085 L22.0534089,54.8026983 C21.2467064,54.1249443 21.3619496,53.9668017 22.9753547,53.5827411 C23.6207167,53.4245985 24.7731489,52.9727625 25.5107055,52.6112938 C26.2482622,52.249825 26.9627701,51.9787234 27.101062,52.0013152 Z M66.0763808,13 C67.2810679,13 68.4548066,13.1324653 69.5838172,13.3836207 C64.7855263,14.6703399 61.2534665,19.0478186 61.2534665,24.25 C61.2534665,30.4632034 66.2918151,35.5 72.5069331,35.5 C76.577582,35.5 80.1434303,33.3393573 82.1195328,30.1026828 C81.5882964,38.4982009 74.608549,45.1428571 66.0763808,45.1428571 C57.1976408,45.1428571 50,37.9474335 50,29.0714286 C50,20.1954237 57.1976408,13 66.0763808,13 Z M86.9888855,8.06792838 C87.0240072,12.8578264 88.6489639,15.2527755 91.8637555,15.2527755 C88.677566,15.2527755 87.053234,18.3470786 86.9907597,24.5356848 L86.988,24.828 L86.9870112,24.5356848 C86.9245369,18.3470786 85.300205,15.2527755 82.1140154,15.2527755 C85.3990505,15.2527755 87.0240072,12.8578264 86.9888855,8.06792838 Z M79.2782501,4.82142857 C79.298358,7.56374822 80.2286807,8.93490804 82.069218,8.93490804 C80.2632976,8.93490804 79.3337797,10.6712092 79.2806644,14.1438114 L79.278,14.452 L79.2758358,14.1438114 C79.2227205,10.6712092 78.2932026,8.93490804 76.4872822,8.93490804 C78.3680354,8.93490804 79.298358,7.56374822 79.2782501,4.82142857 Z M91.6741934,0 C91.69095,2.28526637 92.4662189,3.42789956 94,3.42789956 C92.4494623,3.42789956 91.6741934,4.9638378 91.6741934,8.03571429 C91.6741934,4.9638378 90.8989245,3.42789956 89.3483868,3.42789956 C90.9156811,3.42789956 91.69095,2.28526637 91.6741934,0 Z" id="Combined-Shape"></path>
            </g>
        </g>
    </g>
</svg>