<?xml version="1.0" encoding="UTF-8"?>
<svg width="86px" height="12px" viewBox="0 0 86 12" version="1.1" xmlns="http://www.w3.org/2000/svg" xmlns:xlink="http://www.w3.org/1999/xlink">
    <title>SVG Layer</title>
    <g id="Page-1" stroke="none" stroke-width="1" fill="none" fill-rule="evenodd">
        <g id="Desktop-HD" transform="translate(-828.000000, -1367.000000)" fill="#FFFFFF" fill-rule="nonzero">
            <g id="Group-4" transform="translate(808.000000, 1345.000000)">
                <g id="SVG-Layer" transform="translate(20.000000, 22.000000)">
                    <path d="M83.0684576,0.64173386 C82.7788656,0.562446279 82.4693018,0.423693012 82.1896958,0.453425855 C81.3608637,0.51289154 80.5420176,0.334494483 79.7131855,0.453425855 C79.4535513,0.493069645 79.2039031,0.493069645 78.944269,0.463336802 C78.3151554,0.403871116 77.676056,0.30476164 76.9970128,0.572357226 C76.8771817,1.47425346 76.8671958,2.3761497 76.8572098,3.27804593 C76.837238,5.53774199 76.837238,7.79743806 76.8671958,10.0571341 C76.8771817,10.6022362 76.7873083,11.1869822 77.1268299,11.7023514 C77.8957464,11.8609266 78.6347052,11.9203923 79.3836498,11.6428857 C79.7331573,10.6319691 79.363678,9.59131958 79.6632558,8.46147155 C80.3622709,8.43173871 81.0013703,8.39209492 81.6404697,8.39209492 C82.3794285,8.39209492 83.0684576,8.2434307 83.7375148,7.94610227 C84.835967,7.45055489 85.5749257,6.65767908 85.8645176,5.46836536 C86.4037578,3.19875835 85.3053056,1.2958564 83.0684576,0.64173386 M83.3380776,4.55655818 C83.2382183,5.3097902 82.7189501,5.9341799 81.9799913,6.02337843 C81.8302024,6.04320032 81.6804135,6.06302222 81.5306245,6.07293317 C81.5605823,6.1423098 79.9528478,6.06302222 79.6332981,5.97382369 C79.4635373,4.90344135 79.4635373,3.91234658 79.5933543,2.87169708 C80.5919472,2.54463581 81.5306245,2.61401244 82.4593159,3.0005394 C83.0784435,3.26813498 83.4179651,3.90243563 83.3380776,4.55655818 M73.3920925,8.59031387 C73.3920925,7.05411698 73.3920925,5.52783105 73.4020785,3.99163416 C73.3821066,3.99163416 73.3821066,3.644751 73.4020785,3.6051072 L73.4020785,1.22647977 C73.4020785,0.97870608 73.3022192,0.730932389 73.2323177,0.423693012 L71.2451179,0.423693012 C70.8257088,0.423693012 70.526131,0.621911965 70.3164265,0.97870608 C70.0168486,1.46434251 69.6972989,1.93015705 69.397721,2.40588254 C68.9683261,3.07982698 68.558903,3.75377142 68.1195221,4.41780491 C68.0096769,4.58629102 67.9397754,4.84397566 67.5603101,4.84397566 C67.3605916,4.54664723 67.1209293,4.20967501 66.9012388,3.87270279 C66.322055,2.95098466 65.7328852,2.01935558 65.1736731,1.07781556 C64.914039,0.651644807 64.4646722,0.413782064 63.9653758,0.413782064 C63.4760652,0.413782064 62.9767688,0.423693012 62.4774724,0.433603959 C62.1579226,0.433603959 61.9981478,0.661555755 61.9082744,0.909329446 C61.8483589,1.07781556 61.8583448,1.27603451 61.8583448,1.46434251 C61.8683307,2.29686212 61.8982885,3.11947077 61.8982885,3.95199037 C61.8883026,5.72605 61.8683307,7.50010963 61.8483589,9.27416926 C61.8483589,9.91838085 61.8483589,10.5526815 61.8683307,11.1968931 C61.8783166,11.5239544 62.0380915,11.7122624 62.3476553,11.7320843 C62.9767688,11.781639 63.6158683,11.8609266 64.2449818,11.7023514 C64.3048973,11.5437763 64.3648129,11.4347558 64.3648129,11.3356464 C64.3947707,10.3148188 64.4147426,9.29399115 64.4247285,8.28307449 C64.4347144,7.42082205 64.4247285,6.54865865 64.4147426,5.68640621 C64.4147426,5.50800915 64.4447003,5.34943399 64.5245878,5.21068072 C64.5245878,5.14130409 64.5445596,5.03228367 64.5445596,5.03228367 L64.6044752,4.96290703 C64.6044752,4.96290703 64.7442782,4.94308514 64.7642501,4.93317419 C64.7842219,4.92326324 64.8041938,4.93317419 64.8141797,4.95299608 C64.8241656,4.97281798 64.8441375,5.00255082 64.8441375,5.00255082 L64.8541234,5.04219461 C64.8541234,5.04219461 64.9539827,5.13139314 64.9739546,5.21068072 C65.0937857,5.37916683 65.2535606,5.73596095 65.2535606,5.73596095 L65.3034902,5.79542663 C65.3034902,5.79542663 66.6116469,7.79743806 67.2807041,8.78853282 C67.3705775,8.92728609 67.5603101,8.99666272 67.7300709,9.11559409 C68.3092548,8.42182776 68.7785934,7.73797237 69.1980025,7.03429509 C70.0168486,5.66658431 70.1766235,5.45845441 70.7458214,5.15121504 C70.9055963,5.67649526 70.805737,6.20177549 70.8257088,6.71714476 C70.8456807,7.28206878 70.8257088,7.8469928 70.8257088,8.41191681 C70.8257088,8.93719704 70.8157229,9.47238821 70.8356948,9.99766843 C70.8556666,10.5526815 70.7058777,11.1275165 70.9555259,11.6627076 C71.7444143,11.8113719 71.924161,11.79155 73.3521488,11.3951121 C73.3721207,11.0085851 73.4020785,10.5923253 73.4020785,10.1859764 C73.4220503,9.64087432 73.3920925,9.11559409 73.3920925,8.59031387 M59.2620033,11.5041325 L52.1819798,0.0966317395 C52.1020923,-0.0322105798 51.9223456,-0.0322105798 51.8424582,0.0966317395 C50.8638372,1.70220526 45.840915,9.83909327 44.8223502,11.5041325 C44.7424628,11.6329748 44.8423221,11.8014609 44.992111,11.8014609 L49.4158775,11.8014609 C49.485779,11.8014609 49.5456946,11.7618171 49.5856383,11.7023514 C50.044991,10.9491194 51.3531477,8.39209492 51.8224863,7.619041 C51.9123597,7.47037679 52.0721346,7.47037679 52.1620079,7.619041 L54.4887293,11.7122624 C54.528673,11.7717281 54.5885886,11.8014609 54.6584901,11.8014609 L59.0922425,11.8014609 C59.2520174,11.8113719 59.3518767,11.6428857 59.2620033,11.5041325 Z M51.5129225,7.03429509 L49.1362715,11.2365369 C49.1262856,11.2464478 49.1162996,11.2563588 49.1063137,11.2464478 C48.9864826,11.1770712 48.367355,10.7707223 47.6883118,8.83808756 C47.6783259,8.81826566 47.6982977,8.80835472 47.7082837,8.80835472 C47.93796,8.79844377 49.3060323,8.6795124 51.4829648,7.00456225 C51.5029366,6.98474035 51.5328944,7.00456225 51.5129225,7.03429509 Z M40.6182742,8.36236207 C41.0476692,8.77862187 41.4071626,9.11559409 41.7466842,9.47238821 C42.1061776,9.85891517 42.0961917,10.0967779 41.7167264,10.4238392 C40.9078662,11.1374274 39.9991466,11.6825295 38.9206663,11.8609266 C37.6324815,12.0690565 36.3442967,12.1087003 35.1260134,11.5140434 C33.1388135,10.5625924 31.9105443,9.0957722 31.6908539,6.84598708 C31.5410649,5.35934494 31.7907132,4.01145606 32.649503,2.76267666 C33.6580818,1.2958564 35.0760837,0.502980593 36.8036494,0.255206902 C38.0618764,0.0768098442 39.3001316,0.294850692 40.4784712,0.820130917 C41.2374018,1.15710314 41.4770641,1.37514399 41.9264309,2.08873222 C41.5968952,2.75276571 41.1075847,3.29786783 40.4584994,3.80332616 C40.0990059,3.57537436 39.7594843,3.34742257 39.3999909,3.13929267 C38.1317779,2.41579349 36.7537198,2.48517012 35.6552676,3.30777878 C35.2458445,3.61501815 34.9562526,4.00154511 34.7265762,4.43762681 C34.5368436,4.80433187 34.2971813,5.15121504 34.197322,5.53774199 C34.1174346,5.83507042 34.1473924,6.19186454 34.2272798,6.49910392 C34.3271391,6.89554182 34.4968999,7.28206878 34.6666607,7.65868479 C35.3956335,9.24443641 37.0732695,9.96793559 38.7509055,9.39310063 C39.0704553,9.2840802 39.3700331,9.10568315 39.6596251,8.93719704 C39.9592029,8.77862187 40.2388089,8.59031387 40.6182742,8.36236207 M26.348382,0.64173386 C26.05879,0.562446279 25.7492262,0.423693012 25.4696202,0.453425855 C24.6407881,0.51289154 23.821942,0.334494483 22.9931099,0.453425855 C22.7334757,0.493069645 22.4838275,0.493069645 22.2241934,0.463336802 C21.5950798,0.403871116 20.9559804,0.30476164 20.2769372,0.572357226 C20.1571061,1.47425346 20.1471202,2.3761497 20.1371342,3.27804593 C20.1171624,5.53774199 20.1171624,7.79743806 20.1471202,10.0571341 C20.1571061,10.6022362 20.0672327,11.1869822 20.4067543,11.7023514 C21.1756708,11.8609266 21.9146296,11.9203923 22.6635742,11.6428857 C23.0130817,10.6319691 22.6436024,9.59131958 22.9431802,8.46147155 C23.6421953,8.43173871 24.2812947,8.39209492 24.9203941,8.39209492 C25.6593529,8.39209492 26.348382,8.2434307 27.0174392,7.94610227 C28.1158914,7.45055489 28.8548501,6.65767908 29.144442,5.46836536 C29.6836822,3.19875835 28.58523,1.2958564 26.348382,0.64173386 M26.618002,4.55655818 C26.5181427,5.3097902 25.9988744,5.9341799 25.2599157,6.02337843 C25.1101268,6.04320032 24.9603379,6.06302222 24.8105489,6.07293317 C24.8405067,6.1423098 23.2327722,6.06302222 22.9132224,5.97382369 C22.7434617,4.90344135 22.7434617,3.91234658 22.8732787,2.87169708 C23.8718716,2.54463581 24.8105489,2.61401244 25.7392403,3.0005394 C26.3583679,3.26813498 26.6978895,3.90243563 26.618002,4.55655818 M16.1926924,0.820130917 C16.1926924,0.721021441 16.0928331,0.621911965 16.0329175,0.502980593 C15.3938181,0.334494483 14.7547186,0.433603959 14.1156192,0.453425855 C13.8360132,0.463336802 13.6562664,0.68137765 13.6063368,0.97870608 C13.5863649,1.0877265 13.5863649,1.20665788 13.5863649,1.3156783 C13.5863649,4.48718154 13.5963509,7.65868479 13.5963509,10.830188 C13.5963509,11.1275165 13.5863649,11.4347558 13.865971,11.7221733 C14.5749719,11.8311937 15.3139306,11.8609266 16.0828471,11.6627076 C16.1427627,11.5041325 16.2326361,11.3653792 16.2326361,11.2266259 C16.2326361,7.75779427 16.2226502,4.28896259 16.1926924,0.820130917 M9.77174015,4.40789396 C9.77174015,3.69430573 9.76175422,2.97080656 9.791712,2.25721833 C9.81168386,1.65265052 9.73179643,1.07781556 9.53207785,0.47324775 C8.74318948,0.413782064 8.00423075,0.324583535 7.2253283,0.552535331 C6.88580672,1.94997895 7.40507502,3.36724446 7.0156238,4.70522239 C6.12687613,4.99263987 3.94994365,5.02237272 2.81154777,4.76468808 C2.52195583,4.14029838 2.63180105,3.44653204 2.58187141,2.78249855 C2.52195583,2.07882127 2.79157591,1.36523304 2.49199805,0.621911965 C2.0925609,0.552535331 1.69312374,0.453425855 1.29368659,0.423693012 C0.964150941,0.393960169 0.624629362,0.453425855 0.255149996,0.47324775 C-0.174244942,1.72202715 0.0754032777,2.9807175 0.0454454913,4.20967501 C-0.00448415273,5.44854347 0.0154877049,6.69732287 0.0554314201,7.94610227 C0.0953751353,9.17505978 -0.144287156,10.4139282 0.145304779,11.6230638 C1.23377102,11.8708375 1.77301117,11.8609266 2.55191362,11.5834201 C2.85149148,10.2355312 2.48201212,8.82817661 2.70170255,7.45055489 C3.94994365,7.10367172 5.16822697,7.34153447 6.37652435,7.30189068 C6.58622886,7.29197973 6.79593336,7.44064394 7.0156238,7.51993152 C7.26527202,8.87773135 6.95570822,10.2553531 7.26527202,11.5834201 C7.28524387,11.5735091 7.31520166,11.5635982 7.34515945,11.5834201 C7.43503281,11.6428857 7.53489209,11.6825295 7.62476545,11.7320843 C8.30380861,11.8113719 8.93292213,11.8411047 9.55204971,11.6527967 C9.81168386,10.7608114 9.8616135,10.7112567 9.71182457,10.1661545 C9.60197936,9.77962759 9.64192307,9.43274442 9.71182457,9.06603936 C9.88158536,8.2434307 9.64192307,5.42872157 9.80169793,5.22059167 C9.791712,4.94308514 9.77174015,4.67548955 9.77174015,4.40789396" id="Shape"></path>
                </g>
            </g>
        </g>
    </g>
</svg>