<?xml version="1.0" encoding="UTF-8"?>
<svg width="26px" height="26px" viewBox="0 0 26 26" version="1.1" xmlns="http://www.w3.org/2000/svg" xmlns:xlink="http://www.w3.org/1999/xlink">
    <title>Shape</title>
    <g id="Page-1" stroke="none" stroke-width="1" fill="none" fill-rule="evenodd">
        <g id="Desktop-HD" transform="translate(-938.000000, -75.000000)" fill="#BA744D" fill-rule="nonzero">
            <g id="Group-2" transform="translate(325.000000, 24.000000)">
                <path d="M625.999974,53.3423898 C629.471141,53.3423898 629.882266,53.3556003 631.253064,53.4181438 C632.520551,53.4759914 633.208891,53.6877725 633.667028,53.8657533 C634.273783,54.1015817 634.706892,54.3833372 635.161777,54.8382228 C635.616663,55.2931083 635.898418,55.7262172 636.134195,56.3329721 C636.312227,56.7911087 636.524009,57.4794489 636.581856,58.7468844 C636.6444,60.1177336 636.65761,60.5288593 636.65761,64.0000258 C636.65761,67.4711923 636.6444,67.8823181 636.581856,69.2531156 C636.524009,70.5206028 636.312227,71.2089429 636.134195,71.6670795 C635.898418,72.2738344 635.616663,72.7069433 635.161777,73.1618288 C634.706892,73.6167144 634.273783,73.89847 633.667028,74.1342467 C633.208891,74.312279 632.520551,74.5240602 631.253064,74.5819078 C629.882473,74.6444513 629.471347,74.6576618 625.999974,74.6576618 C622.528601,74.6576618 622.117476,74.6444513 620.746884,74.5819078 C619.479397,74.5240602 618.791057,74.312279 618.332972,74.1342467 C617.726166,73.89847 617.293057,73.6167144 616.838171,73.1618288 C616.383286,72.7069433 616.10153,72.2738344 615.865753,71.6670795 C615.687721,71.2089429 615.47594,70.5206028 615.418092,69.2531672 C615.355549,67.8823181 615.342338,67.4711923 615.342338,64.0000258 C615.342338,60.5288593 615.355549,60.1177336 615.418092,58.746936 C615.47594,57.4794489 615.687721,56.7911087 615.865753,56.3329721 C616.10153,55.7262172 616.383286,55.2931083 616.838171,54.8382228 C617.293057,54.3833372 617.726166,54.1015817 618.332972,53.8657533 C618.791057,53.6877725 619.479397,53.4759914 620.746833,53.4181438 C622.117682,53.3556003 622.528808,53.3423898 625.999974,53.3423898 M625.999974,51 C622.46936,51 622.026705,51.014965 620.640117,51.078231 C619.256367,51.1413938 618.311402,51.3611219 617.484454,51.682509 C616.629589,52.0147328 615.904611,52.4592461 615.181903,53.1819542 C614.459194,53.9046624 614.014681,54.6296411 613.682457,55.484506 C613.36107,56.3114534 613.141342,57.2564182 613.078179,58.6401682 C613.014913,60.0267049 613,60.469412 613,64.0000258 C613,67.5306396 613.014913,67.9733467 613.078179,69.3598833 C613.141342,70.7436334 613.36107,71.6885982 613.682457,72.5155456 C614.014681,73.3703589 614.459194,74.0953892 615.181903,74.8180974 C615.904611,75.5408056 616.629589,75.9853188 617.484454,76.3175427 C618.311402,76.6389298 619.256367,76.8586578 620.640117,76.9218205 C622.026705,76.9850866 622.46936,77 625.999974,77 C629.530588,77 629.973295,76.9850866 631.359832,76.9218205 C632.743582,76.8586578 633.688547,76.6389298 634.515494,76.3175427 C635.370359,75.9853188 636.095338,75.5408056 636.818046,74.8180974 C637.540754,74.0953892 637.985267,73.3704105 638.317491,72.5155456 C638.638878,71.6885982 638.858606,70.7436334 638.921769,69.3598833 C638.985035,67.9733467 639,67.5306396 639,64.0000258 C639,60.469412 638.985035,60.0267049 638.921769,58.6401682 C638.858606,57.2564182 638.638878,56.3114534 638.317491,55.484506 C637.985267,54.6296411 637.540754,53.9046624 636.818046,53.1819542 C636.095338,52.4592461 635.370359,52.0147328 634.515494,51.682509 C633.688547,51.3611219 632.743582,51.1413938 631.359832,51.078231 C629.973295,51.014965 629.530588,51 625.999974,51 Z M625.999974,57.3243285 C622.313105,57.3243285 619.324277,60.3131563 619.324277,64.0000258 C619.324277,67.6868953 622.313105,70.6757231 625.999974,70.6757231 C629.686844,70.6757231 632.675672,67.6868953 632.675672,64.0000258 C632.675672,60.3131563 629.686844,57.3243285 625.999974,57.3243285 Z M625.999974,68.333385 C623.606755,68.333385 621.666615,66.3932451 621.666615,64.0000258 C621.666615,61.6068065 623.606755,59.6666667 625.999974,59.6666667 C628.393193,59.6666667 630.333333,61.6068065 630.333333,64.0000258 C630.333333,66.3932451 628.393193,68.333385 625.999974,68.333385 Z M634.499394,57.0605826 C634.499394,57.922156 633.800991,58.6206105 632.939417,58.6206105 C632.077844,58.6206105 631.37939,57.922156 631.37939,57.0605826 C631.37939,56.1990092 632.077844,55.5006063 632.939417,55.5006063 C633.800991,55.5006063 634.499394,56.1990092 634.499394,57.0605826 Z" id="Shape"></path>
            </g>
        </g>
    </g>
</svg>