<?xml version="1.0" encoding="UTF-8"?>
<svg width="80px" height="26px" viewBox="0 0 80 26" version="1.1" xmlns="http://www.w3.org/2000/svg" xmlns:xlink="http://www.w3.org/1999/xlink">
    <title>Fill 1</title>
    <g id="Page-1" stroke="none" stroke-width="1" fill="none" fill-rule="evenodd">
        <g id="Desktop-HD" transform="translate(-682.000000, -1359.000000)" fill="#FFFFFF">
            <path d="M746.308783,1382.50126 C746.401417,1377.36375 750.513807,1368.33807 753.602281,1367.72597 L753.621579,1367.68698 C749.793226,1368.24021 745.561778,1376.58197 745.469243,1381.8763 C745.449549,1383.06784 746.064334,1384.42225 747.935312,1384.61748 L747.955105,1384.57849 C746.672884,1384.36387 746.28899,1383.51717 746.308783,1382.50126 L746.308783,1382.50126 Z M744.622479,1381.27697 C744.721842,1375.84638 749.151917,1368.22744 753.654832,1367.61525 L753.674626,1367.57636 C748.391452,1368.12958 743.882302,1375.10407 743.782939,1380.64578 C743.756415,1382.18878 744.814475,1384.47449 747.875535,1384.72196 L747.895725,1384.68298 C745.45618,1384.38999 744.596054,1382.65136 744.622479,1381.27697 L744.622479,1381.27697 Z M742.943399,1380.05317 C743.042267,1374.36809 747.750144,1368.12344 753.707879,1367.50462 L753.727672,1367.46564 C747.055789,1367.9672 742.169474,1373.5863 742.070111,1379.42149 C742.037353,1381.31596 743.399143,1384.5396 747.829713,1384.82606 L747.849507,1384.78697 C744.007595,1384.44837 742.910146,1381.77844 742.943399,1380.05317 L742.943399,1380.05317 Z M741.257094,1378.82879 C741.362791,1372.85734 746.586585,1367.9672 753.7538,1367.40063 L753.773494,1367.36125 C745.74655,1367.84985 740.490295,1372.11503 740.384301,1378.19671 C740.344318,1380.44402 742.010829,1384.60461 747.776667,1384.92996 L747.796856,1384.89107 C742.718644,1384.54623 741.217606,1380.89939 741.257094,1378.82879 L741.257094,1378.82879 Z M754.620259,1367.40686 L754.60007,1367.44614 C759.697976,1367.86935 761.166256,1371.43783 761.126372,1373.51515 C761.020279,1379.51925 756.293104,1384.37673 748.636495,1384.9438 L748.616702,1384.9822 C756.987459,1384.48736 761.893567,1380.22267 761.999066,1374.10775 C762.045383,1371.86093 760.379367,1367.73874 754.619863,1367.40686 L754.620259,1367.40686 Z M748.669253,1384.8782 C755.585685,1384.37673 760.213497,1378.78941 760.31959,1372.8897 C760.352843,1370.99474 758.990657,1367.87597 754.567311,1367.52412 L754.547419,1367.5631 C758.210398,1367.9406 759.512809,1370.57826 759.48005,1372.30363 C759.373957,1378.09271 754.81849,1384.22663 748.689047,1384.84594 L748.669253,1384.8782 Z M748.7223,1384.76758 C754.144325,1384.21377 758.501659,1377.34426 758.607257,1371.65918 C758.633682,1370.11617 757.609073,1367.96058 754.514166,1367.62197 L754.494372,1367.66086 C756.927683,1368.02559 757.787511,1369.69257 757.760493,1371.06687 C757.661624,1376.63431 753.410383,1384.10977 748.741994,1384.7282 L748.7223,1384.76758 Z M748.794645,1384.61748 L748.774852,1384.65685 C752.742057,1384.09651 756.828319,1375.89823 756.920953,1370.43489 C756.940746,1369.24335 756.253517,1368.02559 754.454884,1367.7326 L754.435091,1367.77821 C755.605479,1368.08397 756.061619,1368.83301 756.041331,1369.84219 C755.949192,1375.18867 751.982086,1384.03852 748.794645,1384.61748 L748.794645,1384.61748 Z M724.118721,1380.13768 C723.801333,1380.90611 723.120041,1382.55351 723.080454,1383.47155 C723.060661,1383.8624 723.364986,1384.33112 723.768475,1384.52625 C723.83419,1384.559 723.900696,1384.58522 723.966707,1384.60461 L723.993329,1384.54623 C723.880902,1384.47449 723.742051,1384.21377 723.774908,1383.8429 C723.854478,1382.93149 724.58842,1381.29023 724.905709,1380.48905 L733.454805,1359 L732.277787,1359.2346 C732.344293,1359.5081 730.029645,1365.11492 729.930776,1365.39513 L724.118721,1380.13768 Z M722.54514,1379.4671 C722.227455,1380.27442 721.665617,1381.72669 721.579813,1382.67076 C721.474214,1383.8429 722.518716,1384.48112 723.920489,1384.69584 L723.939788,1384.65685 C722.981586,1384.48736 722.240914,1384.03852 722.326719,1383.09396 C722.406289,1382.18216 723.054426,1380.55455 723.332128,1379.81857 L729.051649,1365.36229 C729.190204,1364.97807 731.358677,1359.80118 731.048118,1359.46921 L729.877829,1359.70333 L729.877829,1359.76882 C729.924145,1361.0321 728.436369,1364.48284 728.132638,1365.29728 L722.54514,1379.4671 Z M726.333907,1365.22554 L720.971757,1378.8089 C720.653973,1379.61009 720.145182,1380.8605 720.058882,1381.80457 C719.913697,1383.46541 721.289047,1384.60461 723.874173,1384.78697 L723.887236,1384.75471 C723.351922,1384.69584 722.829671,1384.57235 722.326719,1384.38999 C721.269253,1384.01201 720.739778,1383.28295 720.832312,1382.26052 C720.918711,1381.2836 721.434232,1379.96194 721.751521,1379.16076 L727.246287,1365.26453 C727.524088,1364.52884 729.09084,1361.01884 728.714171,1359.94456 L727.58337,1360.15255 L727.58337,1360.21766 C728.17846,1361.05783 726.697513,1364.31373 726.333907,1365.22554 L726.333907,1365.22554 Z M724.37663,1365.49903 L719.397781,1378.13872 C719.080491,1378.93951 718.657109,1379.94245 718.578034,1380.95826 C718.392866,1383.03548 720.230987,1384.73483 723.83419,1384.86534 L723.854478,1384.82606 C720.812618,1384.65685 719.153331,1383.23744 719.318211,1381.37473 C719.40451,1380.39792 719.866985,1379.25199 720.184769,1378.48356 L725.328597,1365.47291 C725.791962,1364.28098 727.153752,1361.36407 726.419811,1360.38716 L725.249423,1360.62176 L725.249423,1360.68687 C726.036411,1361.79381 724.918674,1364.17699 724.37663,1365.49903 L724.37663,1365.49903 Z M723.801333,1384.93659 C719.702105,1384.76758 717.632401,1382.79435 717.837362,1380.50864 C717.923167,1379.53211 718.293503,1378.63356 718.617522,1377.82585 L723.364986,1365.7465 C723.959977,1364.24248 725.064255,1361.96291 724.191462,1360.84311 L723.113707,1361.06436 L723.113707,1361.12947 C724.032817,1362.14528 723.179818,1363.80602 722.558204,1365.4925 L717.830534,1377.48052 C717.513244,1378.24944 717.182495,1379.07626 717.090357,1380.09206 C716.871936,1382.58587 719.119979,1384.83922 723.788368,1384.97606 L723.801333,1384.93659 Z M737.177561,1367.49137 C734.413502,1367.12041 731.074641,1368.72228 729.190204,1371.52906 L729.222962,1371.56795 C731.001801,1369.04139 734.016643,1367.54361 736.496666,1367.88221 C738.162781,1368.11019 739.299817,1369.34725 739.068827,1371.78306 C738.48007,1377.98871 733.170769,1384.96934 724.667891,1384.9438 L724.647602,1384.98883 C733.474698,1385.31418 739.445497,1378.47693 740.080471,1371.80255 C740.318191,1369.11313 739.049034,1367.74537 737.177561,1367.49137 L737.177561,1367.49137 Z M738.063418,1371.76356 C738.268379,1369.62084 737.296718,1368.52043 735.769454,1368.31195 C733.573962,1368.01272 730.902932,1369.33448 729.282738,1371.65918 L729.315496,1371.69806 C730.796839,1369.69257 733.177103,1368.44879 735.088064,1368.70289 C736.397303,1368.87853 737.276429,1369.85544 737.098486,1371.73744 C736.5892,1377.08353 731.418453,1384.42225 724.713713,1384.83259 L724.693919,1384.87158 C732.152395,1384.83259 737.50831,1377.585 738.063418,1371.76356 L738.063418,1371.76356 Z M724.773489,1384.71534 L724.753299,1384.75471 C731.00863,1384.02488 735.630108,1376.5497 736.093572,1371.72419 C736.244992,1370.13556 735.497986,1369.28886 734.400438,1369.13925 C732.734422,1368.91127 730.657988,1370.01168 729.382002,1371.78306 L729.414859,1371.82204 C730.638294,1370.26578 732.337563,1369.34111 733.68629,1369.52347 C734.645482,1369.65359 735.220185,1370.36354 735.094892,1371.65918 C734.67824,1376.04823 730.433233,1383.54992 724.773489,1384.71534 L724.773489,1384.71534 Z M724.845834,1384.56572 L724.819806,1384.61748 C729.414859,1383.39358 733.725877,1375.50115 734.089879,1371.63305 C734.182512,1370.63664 733.739337,1370.05067 732.991935,1369.95281 C731.894882,1369.8032 730.493109,1370.62388 729.474636,1371.90655 L729.507493,1371.94553 C730.353763,1370.94298 731.498023,1370.23303 732.31104,1370.34366 C732.840119,1370.41529 733.190662,1370.87125 733.124551,1371.61356 C732.806767,1375.00621 728.832832,1382.87934 724.845834,1384.56572 L724.845834,1384.56572 Z M718.399101,1369.71207 C718.320026,1368.10395 717.3546,1367.36788 716.177581,1367.36788 C714.048596,1367.36788 712.190583,1369.022 711.059782,1371.27496 C711.066511,1371.02086 711.066511,1370.75399 711.053448,1370.4804 C710.960913,1368.73515 709.751038,1367.36788 707.548816,1367.36788 C702.933969,1367.36788 700.645844,1370.36354 699.892207,1373.76252 L699.932091,1373.76252 C700.732143,1370.57826 702.887652,1367.71934 707.03953,1367.71934 C709.030159,1367.71934 710.120977,1368.94363 710.207178,1370.51315 C710.319605,1372.57722 709.625151,1374.18573 708.904273,1376.03537 L705.538888,1384.70247 L706.464728,1384.70247 L709.803688,1376.10701 C710.028344,1375.5144 710.240035,1374.96732 710.431933,1374.42686 C711.106098,1373.06583 711.919511,1371.6658 712.342497,1371.6658 C712.660282,1371.6658 712.759546,1371.93267 712.778844,1372.17351 C712.851684,1373.08522 712.514602,1374.57647 711.786994,1375.85915 L711.826977,1375.89151 C712.673246,1375.15592 713.618879,1372.9552 713.559103,1371.80255 C713.533075,1371.34669 713.341177,1371.03412 712.878208,1371.03412 C712.157824,1371.03412 711.24495,1372.49301 710.570784,1374.02939 C710.649859,1373.78816 710.715969,1373.54117 710.782475,1373.29332 C711.502957,1371.75693 712.501637,1370.44151 713.453505,1370.44151 C714.022072,1370.44151 714.359551,1370.82563 714.392408,1371.45732 C714.471879,1372.99409 713.070105,1375.23419 711.899817,1375.96324 L711.939403,1375.99599 C713.533075,1375.29929 715.291724,1372.98746 715.192361,1371.10546 C715.146044,1370.26578 714.696634,1369.80983 713.989215,1369.80983 C712.818926,1369.80983 711.674666,1371.15098 710.894803,1372.81836 C710.921326,1372.68775 710.94112,1372.55149 710.967247,1372.42137 C711.840535,1370.63041 713.136216,1369.21099 714.564512,1369.21099 C715.344276,1369.21099 715.939763,1369.73809 715.992413,1370.74737 C716.111471,1372.98083 713.969026,1375.35777 712.018874,1376.0611 L712.058461,1376.09336 C714.438626,1375.50115 716.931316,1372.98083 716.792861,1370.3959 C716.726355,1369.17161 716.018936,1368.57891 715.100223,1368.57891 C713.453505,1368.57891 711.985621,1370.04394 711.033753,1371.98491 C711.046817,1371.88043 711.046817,1371.7698 711.053448,1371.65918 C712.104679,1369.57522 713.757829,1367.99284 715.66879,1367.99284 C716.700228,1367.99284 717.546497,1368.65727 717.625671,1370.0573 C717.784316,1373.02684 714.974435,1375.54667 712.131301,1376.17172 L712.170789,1376.20408 C715.489956,1375.72903 718.578034,1373.03298 718.399101,1369.71207 L718.399101,1369.71207 Z M709.387036,1370.59113 C709.307862,1369.15874 708.329471,1368.03845 706.550533,1368.03845 C702.867463,1368.03845 700.745207,1370.7345 700.004535,1373.76866 L700.050852,1373.76866 C700.870599,1370.94912 702.748801,1368.39031 706.041346,1368.39031 C707.601764,1368.39031 708.467827,1369.33448 708.540667,1370.62388 C708.6333,1372.33638 707.813554,1374.2251 707.159083,1375.93751 L703.687704,1384.70861 L704.613544,1384.70861 L708.018416,1376.00925 C708.732565,1374.2251 709.4863,1372.44077 709.387036,1370.59113 L709.387036,1370.59113 Z M707.72092,1370.65614 C707.66154,1369.53624 706.907904,1368.69616 705.558682,1368.69616 C702.662501,1368.69616 700.897122,1371.15761 700.130323,1373.76252 L700.16991,1373.76252 C700.976692,1371.33383 702.642708,1369.04763 705.043161,1369.04763 C706.180197,1369.04763 706.821604,1369.74482 706.874651,1370.72787 C706.947491,1372.08891 706.001759,1374.28973 705.373514,1375.83361 L701.803168,1384.70861 L702.761865,1384.70861 L706.2661,1375.86587 C706.887714,1374.25737 707.806725,1372.23238 707.72092,1370.65614 L707.72092,1370.65614 Z M706.061139,1370.76062 C706.021552,1369.95281 705.492572,1369.39959 704.567227,1369.39959 C702.556903,1369.39959 701.00945,1371.52233 700.255715,1373.76866 L700.295796,1373.76866 C701.08229,1371.76356 702.424683,1369.75096 704.044481,1369.75096 C704.7519,1369.75096 705.161823,1370.13556 705.201806,1370.80624 C705.261186,1371.88715 704.150574,1374.33573 703.621594,1375.69638 L699.951489,1384.70861 L700.870599,1384.70861 L704.480927,1375.76148 C705.082748,1374.329 706.127249,1371.98491 706.061139,1370.76062 L706.061139,1370.76062 Z M704.401754,1370.87125 C704.375329,1370.34366 704.071005,1370.07055 703.581611,1370.07055 C702.418052,1370.07055 701.155031,1371.88715 700.394665,1373.77539 L700.440882,1373.77539 C701.208077,1372.09554 702.385195,1370.42202 703.06609,1370.42202 C703.350126,1370.42202 703.53569,1370.55877 703.555484,1370.91023 C703.588341,1371.64631 702.358276,1374.40737 701.849485,1375.59852 L698.113665,1384.72196 L699.039109,1384.72196 L702.741972,1375.67025 C703.271052,1374.36136 704.447674,1371.74368 704.401754,1370.87125 L704.401754,1370.87125 Z M703.826555,1362.68573 C701.955083,1363.76051 700.84457,1365.75937 698.490335,1370.68226 L698.550111,1370.72164 C701.247664,1365.73988 702.788289,1363.75378 706.27283,1362.72472 L706.27283,1362.68573 L703.826555,1362.68573 Z M698.371277,1370.60438 L698.431054,1370.64327 C700.645844,1365.47915 701.221141,1364.06626 702.133521,1362.71848 L702.133521,1362.67959 L700.335284,1362.67959 L700.335284,1362.73135 C700.520452,1364.79581 699.799574,1366.69067 698.371277,1370.60438 L698.371277,1370.60438 Z M698.252615,1370.52602 L698.311897,1370.56539 C699.720499,1365.96123 700.16991,1363.92289 698.926781,1362.67959 L697.168131,1362.67959 L697.168131,1362.71848 C699.131643,1363.40855 699.574819,1365.38178 698.252615,1370.52602 L698.252615,1370.52602 Z M694.305204,1378.58765 L694.900295,1377.35712 L692.883637,1367.2439 C692.328133,1364.39872 692.995965,1363.15494 695.263802,1362.72472 L695.263802,1362.68573 L693.161339,1362.68573 C692.552789,1362.97882 691.270073,1363.884 691.99105,1367.25725 L694.305204,1378.58765 Z M693.115122,1381.02999 L693.710113,1379.80531 L691.052147,1367.17265 C690.555925,1364.71735 690.767616,1363.4413 691.594191,1362.71848 L691.594191,1362.67959 L690.178859,1362.67959 C689.742908,1363.59091 689.610292,1364.50935 690.112848,1366.93142 L693.115122,1381.02999 Z M691.931274,1383.46541 L692.519536,1382.26052 L689.213928,1366.90578 C688.631901,1364.52222 688.764022,1363.42805 689.002237,1362.68573 L687.71962,1362.68573 C687.699826,1363.65602 687.746044,1364.46374 688.222077,1366.50207 L691.931274,1383.46541 Z M686.562296,1362.68573 L685.074619,1362.68573 L685.074619,1362.72472 C685.74245,1363.51304 685.934348,1364.48986 686.463427,1366.61894 L690.437263,1384.71534 L691.32312,1384.71534 L687.342455,1366.56055 C686.780717,1364.22923 686.688083,1363.58468 686.562296,1362.68573 L686.562296,1362.68573 Z M683.586941,1362.68573 L682,1362.68573 L682,1362.72472 C683.45482,1363.29169 684.168968,1364.37884 684.737536,1366.91202 L688.651694,1384.71534 L689.538046,1384.71534 L685.603599,1366.76894 C684.922704,1363.6954 684.208555,1363.12843 683.586941,1362.68573 L683.586941,1362.68573 Z" id="Fill-1"></path>
        </g>
    </g>
</svg>